<svg viewBox="0 0 24 24" xmlns="http://www.w3.org/2000/svg">
    <circle cx="12" cy="12" fill="#008aaa" r="12"/>
    <path d="M18.43 9.27h-1.89c-.04 0-.07-.02-.09-.05l-1.52-2.63c-.02-.03-.05-.05-.09-.05h-6.19c-.04 0-.07.02-.09.05l-1.58 2.73-1.52 2.63c-.02.03-.02.07 0 .1l1.52 2.63 1.58 2.73c.02.03.05.05.09.05h6.19c.04 0 .07-.02.09-.05l1.52-2.63c.02-.03.05-.05.09-.05h1.89c.06 0 .11-.05.11-.11v-5.24c0-.06-.05-.11-.11-.11zM11.19 14.78l-.48.82c-.01.01-.02.02-.03.03-.01.01-.03.01-.04.01h-.94c-.03 0-.06-.02-.08-.05l-1.41-2.45-.14-.24-.51-.87c-.01-.01-.01-.03-.01-.04 0-.01 0-.03.01-.04l.51-.88 1.55-2.67c.02-.03.05-.05.08-.05h.94c.02 0 .03 0 .05.01.01.01.02.02.03.03l.48.83c.01.03.01.06 0 .09l-1.53 2.65c-.01.01-.01.03-.01.04 0 .01 0 .03.01.04l1.53 2.64c.02.03.02.07 0 .1zm4.74-2.74l-.51.87-.14.24-1.41 2.45c-.02.03-.04.05-.08.05h-.94c-.02 0-.03 0-.04-.01-.01-.01-.02-.02-.03-.03l-.48-.82c-.02-.03-.02-.07 0-.1l1.53-2.64c.01-.01.01-.03.01-.04 0-.01 0-.03-.01-.04l-1.53-2.65c-.02-.03-.02-.06 0-.09l.48-.83c.01-.01.02-.02.03-.03.01-.01.03-.01.05-.01h.95c.03 0 .06.02.08.05l1.55 2.67.51.88c.01.01.01.03.01.04 0 .01 0 .02-.01.04z" fill="#fff"/>
</svg>
